<?xml version="1.0" encoding="us-ascii" standalone="no"?><svg xmlns="http://www.w3.org/2000/svg" xmlns:xlink="http://www.w3.org/1999/xlink" contentStyleType="text/css" height="658px" preserveAspectRatio="none" style="width:746px;height:658px;background:#FFFFFF;" version="1.1" viewBox="0 0 746 658" width="746px" zoomAndPan="magnify"><defs/><g><!--class Reservas--><g id="elem_Reservas"><rect codeLine="4" fill="#F1F1F1" height="292.4531" id="Reservas" rx="2.5" ry="2.5" style="stroke:#181818;stroke-width:0.5;" width="307" x="162" y="7"/><ellipse cx="279.25" cy="23" fill="#ADD1B2" rx="11" ry="11" style="stroke:#181818;stroke-width:1.0;"/><path d="M281.5938,18.6719 C280.6563,18.2344 280.0625,18.0938 279.1875,18.0938 C276.5625,18.0938 274.5625,20.1719 274.5625,22.8906 L274.5625,24.0156 C274.5625,26.5938 276.6719,28.4844 279.5625,28.4844 C280.7813,28.4844 281.9375,28.1875 282.6875,27.6406 C283.2656,27.2344 283.5938,26.7813 283.5938,26.3906 C283.5938,25.9375 283.2031,25.5469 282.7344,25.5469 C282.5156,25.5469 282.3125,25.625 282.125,25.8125 C281.6719,26.2969 281.6719,26.2969 281.4844,26.3906 C281.0625,26.6563 280.375,26.7813 279.6094,26.7813 C277.5625,26.7813 276.2656,25.6875 276.2656,23.9844 L276.2656,22.8906 C276.2656,21.1094 277.5156,19.7969 279.25,19.7969 C279.8281,19.7969 280.4375,19.9531 280.9063,20.2031 C281.3906,20.4844 281.5625,20.7031 281.6563,21.1094 C281.7188,21.5156 281.75,21.6406 281.8906,21.7656 C282.0313,21.9063 282.2656,22.0156 282.4844,22.0156 C282.75,22.0156 283.0156,21.875 283.1875,21.6563 C283.2969,21.5 283.3281,21.3125 283.3281,20.8906 L283.3281,19.4688 C283.3281,19.0313 283.3125,18.9063 283.2188,18.75 C283.0625,18.4844 282.7813,18.3438 282.4844,18.3438 C282.1875,18.3438 281.9844,18.4375 281.7656,18.75 L281.5938,18.6719 Z " fill="#000000"/><text fill="#000000" font-family="sans-serif" font-size="14" lengthAdjust="spacing" textLength="64" x="299.75" y="27.8467">Reservas</text><line style="stroke:#181818;stroke-width:0.5;" x1="163" x2="468" y1="39" y2="39"/><rect fill="none" height="6" style="stroke:#C82930;stroke-width:1.0;" width="6" x="170" y="49.6484"/><text fill="#000000" font-family="sans-serif" font-size="14" lengthAdjust="spacing" textLength="84" x="182" y="55.9951">numero: int</text><rect fill="none" height="6" style="stroke:#C82930;stroke-width:1.0;" width="6" x="170" y="65.9453"/><text fill="#000000" font-family="sans-serif" font-size="14" lengthAdjust="spacing" textLength="129" x="182" y="72.292">fechaInicio: string</text><rect fill="none" height="6" style="stroke:#C82930;stroke-width:1.0;" width="6" x="170" y="82.2422"/><text fill="#000000" font-family="sans-serif" font-size="14" lengthAdjust="spacing" textLength="112" x="182" y="88.5889">fechaFin: string</text><rect fill="none" height="6" style="stroke:#C82930;stroke-width:1.0;" width="6" x="170" y="98.5391"/><text fill="#000000" font-family="sans-serif" font-size="14" lengthAdjust="spacing" textLength="118" x="182" y="104.8857">cliente: Clientes</text><rect fill="none" height="6" style="stroke:#C82930;stroke-width:1.0;" width="6" x="170" y="114.8359"/><text fill="#000000" font-family="sans-serif" font-size="14" lengthAdjust="spacing" textLength="120" x="182" y="121.1826">cabana: Cabanas</text><line style="stroke:#181818;stroke-width:0.5;" x1="163" x2="468" y1="128.4844" y2="128.4844"/><ellipse cx="173" cy="142.1328" fill="#84BE84" rx="3" ry="3" style="stroke:#038048;stroke-width:1.0;"/><text fill="#000000" font-family="sans-serif" font-size="14" lengthAdjust="spacing" textLength="120" x="182" y="145.4795">getNumero(): int</text><ellipse cx="173" cy="158.4297" fill="#84BE84" rx="3" ry="3" style="stroke:#038048;stroke-width:1.0;"/><text fill="#000000" font-family="sans-serif" font-size="14" lengthAdjust="spacing" textLength="212" x="182" y="161.7764">setNumero(numero: int): void</text><ellipse cx="173" cy="174.7266" fill="#84BE84" rx="3" ry="3" style="stroke:#038048;stroke-width:1.0;"/><text fill="#000000" font-family="sans-serif" font-size="14" lengthAdjust="spacing" textLength="166" x="182" y="178.0732">getFechaInicio(): string</text><ellipse cx="173" cy="191.0234" fill="#84BE84" rx="3" ry="3" style="stroke:#038048;stroke-width:1.0;"/><text fill="#000000" font-family="sans-serif" font-size="14" lengthAdjust="spacing" textLength="281" x="182" y="194.3701">setFechaInicio(fechaInicio: string): void</text><ellipse cx="173" cy="207.3203" fill="#84BE84" rx="3" ry="3" style="stroke:#038048;stroke-width:1.0;"/><text fill="#000000" font-family="sans-serif" font-size="14" lengthAdjust="spacing" textLength="149" x="182" y="210.667">getFechaFin(): string</text><ellipse cx="173" cy="223.6172" fill="#84BE84" rx="3" ry="3" style="stroke:#038048;stroke-width:1.0;"/><text fill="#000000" font-family="sans-serif" font-size="14" lengthAdjust="spacing" textLength="247" x="182" y="226.9639">setFechaFin(fechaFin: string): void</text><ellipse cx="173" cy="239.9141" fill="#84BE84" rx="3" ry="3" style="stroke:#038048;stroke-width:1.0;"/><text fill="#000000" font-family="sans-serif" font-size="14" lengthAdjust="spacing" textLength="155" x="182" y="243.2607">getCliente(): Clientes</text><ellipse cx="173" cy="256.2109" fill="#84BE84" rx="3" ry="3" style="stroke:#038048;stroke-width:1.0;"/><text fill="#000000" font-family="sans-serif" font-size="14" lengthAdjust="spacing" textLength="157" x="182" y="259.5576">getCabana(): Cabanas</text><ellipse cx="173" cy="272.5078" fill="#84BE84" rx="3" ry="3" style="stroke:#038048;stroke-width:1.0;"/><text fill="#000000" font-family="sans-serif" font-size="14" lengthAdjust="spacing" textLength="186" x="182" y="275.8545">calcularCostoTotal(): float</text><ellipse cx="173" cy="288.8047" fill="#84BE84" rx="3" ry="3" style="stroke:#038048;stroke-width:1.0;"/><text fill="#000000" font-family="sans-serif" font-size="14" lengthAdjust="spacing" textLength="197" x="182" y="292.1514">calcularDiferenciaDias(): int</text></g><!--class Clientes--><g id="elem_Clientes"><rect codeLine="34" fill="#F1F1F1" height="292.4531" id="Clientes" rx="2.5" ry="2.5" style="stroke:#181818;stroke-width:0.5;" width="283" x="7" y="359"/><ellipse cx="114.75" cy="375" fill="#ADD1B2" rx="11" ry="11" style="stroke:#181818;stroke-width:1.0;"/><path d="M117.0938,370.6719 C116.1563,370.2344 115.5625,370.0938 114.6875,370.0938 C112.0625,370.0938 110.0625,372.1719 110.0625,374.8906 L110.0625,376.0156 C110.0625,378.5938 112.1719,380.4844 115.0625,380.4844 C116.2813,380.4844 117.4375,380.1875 118.1875,379.6406 C118.7656,379.2344 119.0938,378.7813 119.0938,378.3906 C119.0938,377.9375 118.7031,377.5469 118.2344,377.5469 C118.0156,377.5469 117.8125,377.625 117.625,377.8125 C117.1719,378.2969 117.1719,378.2969 116.9844,378.3906 C116.5625,378.6563 115.875,378.7813 115.1094,378.7813 C113.0625,378.7813 111.7656,377.6875 111.7656,375.9844 L111.7656,374.8906 C111.7656,373.1094 113.0156,371.7969 114.75,371.7969 C115.3281,371.7969 115.9375,371.9531 116.4063,372.2031 C116.8906,372.4844 117.0625,372.7031 117.1563,373.1094 C117.2188,373.5156 117.25,373.6406 117.3906,373.7656 C117.5313,373.9063 117.7656,374.0156 117.9844,374.0156 C118.25,374.0156 118.5156,373.875 118.6875,373.6563 C118.7969,373.5 118.8281,373.3125 118.8281,372.8906 L118.8281,371.4688 C118.8281,371.0313 118.8125,370.9063 118.7188,370.75 C118.5625,370.4844 118.2813,370.3438 117.9844,370.3438 C117.6875,370.3438 117.4844,370.4375 117.2656,370.75 L117.0938,370.6719 Z " fill="#000000"/><text fill="#000000" font-family="sans-serif" font-size="14" lengthAdjust="spacing" textLength="59" x="135.25" y="379.8467">Clientes</text><line style="stroke:#181818;stroke-width:0.5;" x1="8" x2="289" y1="391" y2="391"/><rect fill="none" height="6" style="stroke:#C82930;stroke-width:1.0;" width="6" x="15" y="401.6484"/><text fill="#000000" font-family="sans-serif" font-size="14" lengthAdjust="spacing" textLength="73" x="27" y="407.9951">dni: string</text><rect fill="none" height="6" style="stroke:#C82930;stroke-width:1.0;" width="6" x="15" y="417.9453"/><text fill="#000000" font-family="sans-serif" font-size="14" lengthAdjust="spacing" textLength="108" x="27" y="424.292">nombre: string</text><rect fill="none" height="6" style="stroke:#C82930;stroke-width:1.0;" width="6" x="15" y="434.2422"/><text fill="#000000" font-family="sans-serif" font-size="14" lengthAdjust="spacing" textLength="117" x="27" y="440.5889">direccion: string</text><rect fill="none" height="6" style="stroke:#C82930;stroke-width:1.0;" width="6" x="15" y="450.5391"/><text fill="#000000" font-family="sans-serif" font-size="14" lengthAdjust="spacing" textLength="113" x="27" y="456.8857">telefono: string</text><rect fill="none" height="6" style="stroke:#C82930;stroke-width:1.0;" width="6" x="15" y="466.8359"/><text fill="#000000" font-family="sans-serif" font-size="14" lengthAdjust="spacing" textLength="90" x="27" y="473.1826">email: string</text><line style="stroke:#181818;stroke-width:0.5;" x1="8" x2="289" y1="480.4844" y2="480.4844"/><ellipse cx="18" cy="494.1328" fill="#84BE84" rx="3" ry="3" style="stroke:#038048;stroke-width:1.0;"/><text fill="#000000" font-family="sans-serif" font-size="14" lengthAdjust="spacing" textLength="110" x="27" y="497.4795">getDni(): string</text><ellipse cx="18" cy="510.4297" fill="#84BE84" rx="3" ry="3" style="stroke:#038048;stroke-width:1.0;"/><text fill="#000000" font-family="sans-serif" font-size="14" lengthAdjust="spacing" textLength="169" x="27" y="513.7764">setDni(dni: string): void</text><ellipse cx="18" cy="526.7266" fill="#84BE84" rx="3" ry="3" style="stroke:#038048;stroke-width:1.0;"/><text fill="#000000" font-family="sans-serif" font-size="14" lengthAdjust="spacing" textLength="144" x="27" y="530.0732">getNombre(): string</text><ellipse cx="18" cy="543.0234" fill="#84BE84" rx="3" ry="3" style="stroke:#038048;stroke-width:1.0;"/><text fill="#000000" font-family="sans-serif" font-size="14" lengthAdjust="spacing" textLength="238" x="27" y="546.3701">setNombre(nombre: string): void</text><ellipse cx="18" cy="559.3203" fill="#84BE84" rx="3" ry="3" style="stroke:#038048;stroke-width:1.0;"/><text fill="#000000" font-family="sans-serif" font-size="14" lengthAdjust="spacing" textLength="154" x="27" y="562.667">getDireccion(): string</text><ellipse cx="18" cy="575.6172" fill="#84BE84" rx="3" ry="3" style="stroke:#038048;stroke-width:1.0;"/><text fill="#000000" font-family="sans-serif" font-size="14" lengthAdjust="spacing" textLength="257" x="27" y="578.9639">setDireccion(direccion: string): void</text><ellipse cx="18" cy="591.9141" fill="#84BE84" rx="3" ry="3" style="stroke:#038048;stroke-width:1.0;"/><text fill="#000000" font-family="sans-serif" font-size="14" lengthAdjust="spacing" textLength="150" x="27" y="595.2607">getTelefono(): string</text><ellipse cx="18" cy="608.2109" fill="#84BE84" rx="3" ry="3" style="stroke:#038048;stroke-width:1.0;"/><text fill="#000000" font-family="sans-serif" font-size="14" lengthAdjust="spacing" textLength="249" x="27" y="611.5576">setTelefono(telefono: string): void</text><ellipse cx="18" cy="624.5078" fill="#84BE84" rx="3" ry="3" style="stroke:#038048;stroke-width:1.0;"/><text fill="#000000" font-family="sans-serif" font-size="14" lengthAdjust="spacing" textLength="125" x="27" y="627.8545">getEmail(): string</text><ellipse cx="18" cy="640.8047" fill="#84BE84" rx="3" ry="3" style="stroke:#038048;stroke-width:1.0;"/><text fill="#000000" font-family="sans-serif" font-size="14" lengthAdjust="spacing" textLength="201" x="27" y="644.1514">setEmail(email: string): void</text></g><!--class Cabanas--><g id="elem_Cabanas"><rect codeLine="53" fill="#F1F1F1" height="243.5625" id="Cabanas" rx="2.5" ry="2.5" style="stroke:#181818;stroke-width:0.5;" width="317" x="325" y="383"/><ellipse cx="449.25" cy="399" fill="#ADD1B2" rx="11" ry="11" style="stroke:#181818;stroke-width:1.0;"/><path d="M451.5938,394.6719 C450.6563,394.2344 450.0625,394.0938 449.1875,394.0938 C446.5625,394.0938 444.5625,396.1719 444.5625,398.8906 L444.5625,400.0156 C444.5625,402.5938 446.6719,404.4844 449.5625,404.4844 C450.7813,404.4844 451.9375,404.1875 452.6875,403.6406 C453.2656,403.2344 453.5938,402.7813 453.5938,402.3906 C453.5938,401.9375 453.2031,401.5469 452.7344,401.5469 C452.5156,401.5469 452.3125,401.625 452.125,401.8125 C451.6719,402.2969 451.6719,402.2969 451.4844,402.3906 C451.0625,402.6563 450.375,402.7813 449.6094,402.7813 C447.5625,402.7813 446.2656,401.6875 446.2656,399.9844 L446.2656,398.8906 C446.2656,397.1094 447.5156,395.7969 449.25,395.7969 C449.8281,395.7969 450.4375,395.9531 450.9063,396.2031 C451.3906,396.4844 451.5625,396.7031 451.6563,397.1094 C451.7188,397.5156 451.75,397.6406 451.8906,397.7656 C452.0313,397.9063 452.2656,398.0156 452.4844,398.0156 C452.75,398.0156 453.0156,397.875 453.1875,397.6563 C453.2969,397.5 453.3281,397.3125 453.3281,396.8906 L453.3281,395.4688 C453.3281,395.0313 453.3125,394.9063 453.2188,394.75 C453.0625,394.4844 452.7813,394.3438 452.4844,394.3438 C452.1875,394.3438 451.9844,394.4375 451.7656,394.75 L451.5938,394.6719 Z " fill="#000000"/><text fill="#000000" font-family="sans-serif" font-size="14" lengthAdjust="spacing" textLength="60" x="469.75" y="403.8467">Cabanas</text><line style="stroke:#181818;stroke-width:0.5;" x1="326" x2="641" y1="415" y2="415"/><rect fill="none" height="6" style="stroke:#C82930;stroke-width:1.0;" width="6" x="333" y="425.6484"/><text fill="#000000" font-family="sans-serif" font-size="14" lengthAdjust="spacing" textLength="84" x="345" y="431.9951">numero: int</text><rect fill="none" height="6" style="stroke:#C82930;stroke-width:1.0;" width="6" x="333" y="441.9453"/><text fill="#000000" font-family="sans-serif" font-size="14" lengthAdjust="spacing" textLength="101" x="345" y="448.292">capacidad: int</text><rect fill="none" height="6" style="stroke:#C82930;stroke-width:1.0;" width="6" x="333" y="458.2422"/><text fill="#000000" font-family="sans-serif" font-size="14" lengthAdjust="spacing" textLength="134" x="345" y="464.5889">descripcion: string</text><rect fill="none" height="6" style="stroke:#C82930;stroke-width:1.0;" width="6" x="333" y="474.5391"/><text fill="#000000" font-family="sans-serif" font-size="14" lengthAdjust="spacing" textLength="125" x="345" y="480.8857">costoDiario: float</text><line style="stroke:#181818;stroke-width:0.5;" x1="326" x2="641" y1="488.1875" y2="488.1875"/><ellipse cx="336" cy="501.8359" fill="#84BE84" rx="3" ry="3" style="stroke:#038048;stroke-width:1.0;"/><text fill="#000000" font-family="sans-serif" font-size="14" lengthAdjust="spacing" textLength="120" x="345" y="505.1826">getNumero(): int</text><ellipse cx="336" cy="518.1328" fill="#84BE84" rx="3" ry="3" style="stroke:#038048;stroke-width:1.0;"/><text fill="#000000" font-family="sans-serif" font-size="14" lengthAdjust="spacing" textLength="212" x="345" y="521.4795">setNumero(numero: int): void</text><ellipse cx="336" cy="534.4297" fill="#84BE84" rx="3" ry="3" style="stroke:#038048;stroke-width:1.0;"/><text fill="#000000" font-family="sans-serif" font-size="14" lengthAdjust="spacing" textLength="138" x="345" y="537.7764">getCapacidad(): int</text><ellipse cx="336" cy="550.7266" fill="#84BE84" rx="3" ry="3" style="stroke:#038048;stroke-width:1.0;"/><text fill="#000000" font-family="sans-serif" font-size="14" lengthAdjust="spacing" textLength="247" x="345" y="554.0732">setCapacidad(capacidad: int): void</text><ellipse cx="336" cy="567.0234" fill="#84BE84" rx="3" ry="3" style="stroke:#038048;stroke-width:1.0;"/><text fill="#000000" font-family="sans-serif" font-size="14" lengthAdjust="spacing" textLength="171" x="345" y="570.3701">getDescripcion(): string</text><ellipse cx="336" cy="583.3203" fill="#84BE84" rx="3" ry="3" style="stroke:#038048;stroke-width:1.0;"/><text fill="#000000" font-family="sans-serif" font-size="14" lengthAdjust="spacing" textLength="291" x="345" y="586.667">setDescripcion(descripcion: string): void</text><ellipse cx="336" cy="599.6172" fill="#84BE84" rx="3" ry="3" style="stroke:#038048;stroke-width:1.0;"/><text fill="#000000" font-family="sans-serif" font-size="14" lengthAdjust="spacing" textLength="162" x="345" y="602.9639">getCostoDiario(): float</text><ellipse cx="336" cy="615.9141" fill="#84BE84" rx="3" ry="3" style="stroke:#038048;stroke-width:1.0;"/><text fill="#000000" font-family="sans-serif" font-size="14" lengthAdjust="spacing" textLength="281" x="345" y="619.2607">setCostoDiario(costoDiario: float): void</text></g><!--class Conexion--><g id="elem_Conexion"><rect codeLine="23" fill="#F1F1F1" height="162.0781" id="Conexion" rx="2.5" ry="2.5" style="stroke:#181818;stroke-width:0.5;" width="235" x="504" y="72"/><ellipse cx="583.75" cy="88" fill="#ADD1B2" rx="11" ry="11" style="stroke:#181818;stroke-width:1.0;"/><path d="M586.0938,83.6719 C585.1563,83.2344 584.5625,83.0938 583.6875,83.0938 C581.0625,83.0938 579.0625,85.1719 579.0625,87.8906 L579.0625,89.0156 C579.0625,91.5938 581.1719,93.4844 584.0625,93.4844 C585.2813,93.4844 586.4375,93.1875 587.1875,92.6406 C587.7656,92.2344 588.0938,91.7813 588.0938,91.3906 C588.0938,90.9375 587.7031,90.5469 587.2344,90.5469 C587.0156,90.5469 586.8125,90.625 586.625,90.8125 C586.1719,91.2969 586.1719,91.2969 585.9844,91.3906 C585.5625,91.6563 584.875,91.7813 584.1094,91.7813 C582.0625,91.7813 580.7656,90.6875 580.7656,88.9844 L580.7656,87.8906 C580.7656,86.1094 582.0156,84.7969 583.75,84.7969 C584.3281,84.7969 584.9375,84.9531 585.4063,85.2031 C585.8906,85.4844 586.0625,85.7031 586.1563,86.1094 C586.2188,86.5156 586.25,86.6406 586.3906,86.7656 C586.5313,86.9063 586.7656,87.0156 586.9844,87.0156 C587.25,87.0156 587.5156,86.875 587.6875,86.6563 C587.7969,86.5 587.8281,86.3125 587.8281,85.8906 L587.8281,84.4688 C587.8281,84.0313 587.8125,83.9063 587.7188,83.75 C587.5625,83.4844 587.2813,83.3438 586.9844,83.3438 C586.6875,83.3438 586.4844,83.4375 586.2656,83.75 L586.0938,83.6719 Z " fill="#000000"/><text fill="#000000" font-family="sans-serif" font-size="14" lengthAdjust="spacing" textLength="67" x="604.25" y="92.8467">Conexion</text><line style="stroke:#181818;stroke-width:0.5;" x1="505" x2="738" y1="104" y2="104"/><rect fill="none" height="6" style="stroke:#C82930;stroke-width:1.0;" width="6" x="512" y="114.6484"/><text fill="#000000" font-family="sans-serif" font-size="14" lengthAdjust="spacing" textLength="83" x="524" y="120.9951">host: string</text><rect fill="none" height="6" style="stroke:#C82930;stroke-width:1.0;" width="6" x="512" y="130.9453"/><text fill="#000000" font-family="sans-serif" font-size="14" lengthAdjust="spacing" textLength="101" x="524" y="137.292">usuario: string</text><rect fill="none" height="6" style="stroke:#C82930;stroke-width:1.0;" width="6" x="512" y="147.2422"/><text fill="#000000" font-family="sans-serif" font-size="14" lengthAdjust="spacing" textLength="131" x="524" y="153.5889">contrasena: string</text><rect fill="none" height="6" style="stroke:#C82930;stroke-width:1.0;" width="6" x="512" y="163.5391"/><text fill="#000000" font-family="sans-serif" font-size="14" lengthAdjust="spacing" textLength="157" x="524" y="169.8857">base_de_datos: string</text><rect fill="none" height="6" style="stroke:#C82930;stroke-width:1.0;" width="6" x="512" y="179.8359"/><text fill="#000000" font-family="sans-serif" font-size="14" lengthAdjust="spacing" textLength="105" x="524" y="186.1826">conexion: PDO</text><line style="stroke:#181818;stroke-width:0.5;" x1="505" x2="738" y1="193.4844" y2="193.4844"/><ellipse cx="515" cy="207.1328" fill="#84BE84" rx="3" ry="3" style="stroke:#038048;stroke-width:1.0;"/><text fill="#000000" font-family="sans-serif" font-size="14" lengthAdjust="spacing" textLength="209" x="524" y="210.4795">obtenerInstancia(): Conexion</text><ellipse cx="515" cy="223.4297" fill="#84BE84" rx="3" ry="3" style="stroke:#038048;stroke-width:1.0;"/><text fill="#000000" font-family="sans-serif" font-size="14" lengthAdjust="spacing" textLength="176" x="524" y="226.7764">obtenerConexion(): PDO</text></g><!--link Reservas to Clientes--><g id="link_Reservas_Clientes"><path codeLine="1" d="M246.249,299.138 C236.833,318.871 229.7518,333.7118 220.3358,353.4458 " fill="none" id="Reservas-to-Clientes" style="stroke:#181818;stroke-width:1.0;"/><polygon fill="#181818" points="217.752,358.861,225.2378,352.4608,219.9052,354.3484,218.0176,349.0157,217.752,358.861" style="stroke:#181818;stroke-width:1.0;"/></g><!--link Reservas to Cabanas--><g id="link_Reservas_Cabanas"><path codeLine="2" d="M385.166,299.138 C398.517,326.953 409.7695,350.3959 422.7135,377.3609 " fill="none" id="Reservas-to-Cabanas" style="stroke:#181818;stroke-width:1.0;"/><polygon fill="#181818" points="425.31,382.77,425.0213,372.9254,423.1462,378.2624,417.8092,376.3874,425.31,382.77" style="stroke:#181818;stroke-width:1.0;"/></g><!--SRC=[hLIxRW8n4Epv2fU943z0aOOB4Ws947sq-1POwLWZsuSYHVdtd7qFdnz95KGruzsTsV7vW0Rr0unOhLx4fY5aYsPnY50u0ODPB6G3neY9-rg8xhSItDvGgxKWjWDoHdc57PEa3ZPM4r_cp9OuWMK_U1qK3BWVlGuI7BmK5xHxF_JfEOnT2ZF1CqdTYOUYEbHkWpXNFjFXEypfWezokyxHhxqSbzhEkWo-NPDe1JtftNjks4DFIMXasu3UA6FLKLbet9bpey0c9oeweqQM11M16RVsFKQwKOoVf7YAzDfrJ29gJGiworCgjXeCkf0YujI17tNt1wjCNkJ7hSLxzJPcgauM6VMEZGKdrDiT3iP7HjITS0s2ZM5pausQAHdDwdRIc80rQPJI2ufmYmsU5QUUyGRKJ5Y8gM8gNG87puHaqU-zf5BbmCIQi_fgL5ySFf6PoQpHSR1RwZDnwKwoBgzkEwKMFH4jRomE2VRt-u-dHS8T9DLGpy4QZTHqBqGetQVHtNb_S_ilup_UaCse8YiEJAmqZoreBWOtemlsSaN1QFe8c9ZDLpB5y0C0]--></g></svg>